:FULLY-SPECIFIED
:FORCE-ALL-JOINTS-BE-3DOF
:DEGREES
170
root 6.5057 16.0146 -25.7091 3.86647 28.7696 1.39089
lfemur -21.6872 27.6012 -16.625
ltibia 34.7777 0 0
lfoot -9.89937 9.18135 0
ltoes 33.4775 0 0
rfemur -28.098 -9.41412 -3.78807
rtibia 72.344 0 0
rfoot 5.63509 -20.5703 0
rtoes 46.5915 0 0
lowerback 1.91116 -6.07113 -1.96976
upperback -0.0347097 -8.15196 -2.1095
thorax -1.01996 -4.06278 -0.821979
lowerneck -10.0763 -5.99848 -1.18872
upperneck 2.08547 -8.13128 5.10971
head 2.78475 -3.87455 1.40552
lclavicle 3.05619e-14 -1.31489e-14 0
lhumerus -48.914 -41.6472 113.99
lradius 51.8985 0 0
lwrist 14.2535 0 0
lhand 37.8314 24.2792 0
lfingers 7.12502 0 0
lthumb 60.5691 37.4075 0
rclavicle 3.05619e-14 -1.31489e-14 0
rhumerus -45.1727 -21.4785 -67.7881
rradius 88.3635 0 0
rwrist -18.2244 0 0
rhand -25.181 -25.3202 0
rfingers 7.12502 0 0
rthumb 1.33736 -415.243 0
171
root 6.45938 15.9874 -25.7022 3.95949 27.9256 1.50815
lfemur -20.8717 26.7867 -16.1409
ltibia 33.9662 0 0
lfoot -10.6292 8.59706 0
ltoes 33.8518 0 0
rfemur -28.2011 -9.71184 -3.91847
rtibia 71.7551 0 0
rfoot 4.74117 -19.488 0
rtoes 46.9719 0 0
lowerback 1.77538 -5.94134 -1.92783
upperback -0.0529372 -7.97517 -2.26397
thorax -0.971519 -3.97509 -1.01633
lowerneck -10.1132 -5.82212 -0.961464
upperneck 2.13513 -7.92538 5.03351
head 2.79821 -3.77063 1.35256
lclavicle 2.94286e-14 -1.45064e-14 0
lhumerus -49.2059 -41.7976 114.06
lradius 51.9575 0 0
lwrist 14.5609 0 0
lhand 37.9109 24.4283 0
lfingers 7.12502 0 0
lthumb 60.6357 37.4763 0
rclavicle 2.94286e-14 -1.45064e-14 0
rhumerus -43.9827 -21.6276 -66.2955
rradius 87.3946 0 0
rwrist -18.3232 0 0
rhand -25.5456 -26.2873 0
rfingers 7.12502 0 0
rthumb 0.98535 -416.203 0
172
root 6.41307 15.9602 -25.6952 4.0525 27.0817 1.62541
lfemur -20.0562 25.9723 -15.6567
ltibia 33.1547 0 0
lfoot -11.359 8.01277 0
ltoes 34.2262 0 0
rfemur -28.3041 -10.0096 -4.04888
rtibia 71.1662 0 0
rfoot 3.84725 -18.4057 0
rtoes 47.3522 0 0
lowerback 1.6396 -5.81155 -1.8859
upperback -0.0711648 -7.79837 -2.41843
thorax -0.923079 -3.8874 -1.21068
lowerneck -10.1501 -5.64575 -0.734211
upperneck 2.18479 -7.71949 4.95732
head 2.81166 -3.6667 1.29961
lclavicle 2.82953e-14 -1.5864e-14 0
lhumerus -49.4977 -41.9481 114.131
lradius 52.0165 0 0
lwrist 14.8684 0 0
lhand 37.9903 24.5774 0
lfingers 7.12502 0 0
lthumb 60.7023 37.545 0
rclavicle 2.82953e-14 -1.5864e-14 0
rhumerus -42.7927 -21.7768 -64.8029
rradius 86.4258 0 0
rwrist -18.4221 0 0
rhand -25.9102 -27.2544 0
rfingers 7.12502 0 0
rthumb 0.63334 -417.163 0
173
root 6.36675 15.933 -25.6883 4.14551 26.2377 1.74267
lfemur -19.2406 25.1578 -15.1726
ltibia 32.3431 0 0
lfoot -12.0888 7.42848 0
ltoes 34.6005 0 0
rfemur -28.4072 -10.3073 -4.17928
rtibia 70.5773 0 0
rfoot 2.95332 -17.3234 0
rtoes 47.7326 0 0
lowerback 1.50383 -5.68175 -1.84397
upperback -0.0893923 -7.62157 -2.5729
thorax -0.874639 -3.79971 -1.40503
lowerneck -10.1869 -5.46939 -0.506959
upperneck 2.23445 -7.5136 4.88112
head 2.82511 -3.56278 1.24666
lclavicle 2.7162e-14 -1.72215e-14 0
lhumerus -49.7895 -42.0985 114.201
lradius 52.0754 0 0
lwrist 15.1758 0 0
lhand 38.0698 24.7265 0
lfingers 7.12502 0 0
lthumb 60.7689 37.6138 0
rclavicle 2.7162e-14 -1.72215e-14 0
rhumerus -41.6026 -21.9259 -63.3104
rradius 85.4569 0 0
rwrist -18.5209 0 0
rhand -26.2748 -28.2214 0
rfingers 7.12502 0 0
rthumb 0.28133 -418.123 0
